# xmcd
#
# Track frame offsets:
#	150
#	16519
#	35337
#	48823
#	62542
#	85731
#	98159
#	112538
#	130802
#	146417
#	159219
#	174842
#	197216
#	211520
#
# Disc length: 2990 seconds
#
# Revision: 0
# Processed by: cddbd v1.5.2PL0 Copyright (c) Steve Scherf et al.
# Submitted via: EasyCDDAExtractor 15.3.0.1
#
DISCID=960bac0e
DTITLE=Sven Zetterberg And The Chicago Express - The Blue Solution
DYEAR=1990
DGENRE=Blues
TTITLE0=Never Like This Before
TTITLE1=Pouring Water On A Drowning Man
TTITLE2=Sloppy Drunk
TTITLE3=Tight Budget
TTITLE4=I Need Me Somebody
TTITLE5=Further Information
TTITLE6=I Grew Tired Of It
TTITLE7=The Chokin' Kind
TTITLE8=I'll Never Do You Wrong
TTITLE9=Jump The Boogie
TTITLE10=Had You Told It Like It Was (It Wouldn't Be Like It Is)
TTITLE11=My Nerve's Gone Bad
TTITLE12=Back Track
TTITLE13=Morocco
EXTD=ID3G: 0\n
EXTT0=(I. Hayes/D. Porters/B. T. Jones]\n
EXTT1=(D. Baker/D. McGormick]\n
EXTT2=(J. A. Lane]\n
EXTT3=(S. Zetterberg]\n
EXTT4=(S. Zetterberg]\n
EXTT5=(S. Zetterberg]\n
EXTT6=(S. Zetterberg]\n
EXTT7=(H. Howard]\n
EXTT8=(J. Tex]\n
EXTT9=(G. Lightfoot]\n
EXTT10=(S. Thompson/G. Redd]\n
EXTT11=(N. Struck]\n
EXTT12=(W. Jacobs]\n
EXTT13=(W. Scheel/L. Hope]\n
PLAYORDER=
